Coordinates
version=1
nRows=11
nColumns=36
inDegrees=yes

Units are S.I. units (second, meters, Newtons, ...)
If the header above contains a line with 'inDegrees', this indicates whether rotational values are in degrees (yes) or radians (no).

endheader
time	pelvis_tilt	pelvis_list	pelvis_rotation	pelvis_tx	pelvis_ty	pelvis_tz	hip_flexion_r	hip_adduction_r	hip_rotation_r	knee_angle_r	knee_angle_r_beta	ankle_angle_r	subtalar_angle_r	mtp_angle_r	hip_flexion_l	hip_adduction_l	hip_rotation_l	knee_angle_l	knee_angle_l_beta	ankle_angle_l	subtalar_angle_l	mtp_angle_l	lumbar_extension	lumbar_bending	lumbar_rotation	arm_flex_r	arm_add_r	arm_rot_r	elbow_flex_r	pro_sup_r	arm_flex_l	arm_add_l	arm_rot_l	elbow_flex_l	pro_sup_l
      0.00000000	    -11.59707596	      5.70245539	    -10.07527638	      0.08598458	      0.91197631	     -0.03140499	     20.37290294	     -2.53020881	     -0.23448993	     16.81557719	      0.29348719	      0.48616760	    -12.95728920	     -7.64830844	     16.59316867	     -4.94865243	     -2.07034331	     11.85232746	      0.20686214	      1.35093394	     -4.42640272	     -7.64830844	    -11.38786938	      0.11866732	     -5.16790386	     40.16165986	     14.62890765	     61.13117709	    129.71921587	    110.91619817	     50.06355025	     17.01372615	     63.26351498	    128.78889095	     99.42172287
      0.01666670	    -12.34800620	      6.30980867	    -10.25596253	      0.08572446	      0.90857462	     -0.02545723	     21.43768579	     -2.16065527	      2.27061290	     17.33046787	      0.30247373	      4.26051909	    -12.18594631	     -7.64089131	     17.29841209	     -4.34639092	     -0.90688687	     11.91568871	      0.20796800	      1.71368500	     -3.53199389	     -7.64089131	     -9.92346611	     -0.15992031	     -4.91977664	     41.63394984	     15.64109613	     61.16321289	    130.25885644	    108.72016285	     51.74909432	     18.08650238	     62.75164555	    129.39170970	     98.47921568
      0.03333330	    -12.93135215	      6.05629743	    -10.29260971	      0.08769329	      0.90699350	     -0.01851738	     21.62543730	     -1.19864314	      2.29512990	     17.32429061	      0.30236591	      4.37650474	    -12.74710614	     -7.61581712	     18.12389452	     -5.17991324	     -0.58023513	     12.53843040	      0.21883689	      1.34039250	     -4.49033651	     -7.61581712	     -8.94591032	     -0.05960382	     -4.23632457	     40.29414484	     15.80546550	     62.89123837	    130.85528313	    108.47389048	     51.65323787	     18.89203517	     63.34710694	    129.40347285	     99.98298937
      0.05000000	    -12.61011287	      5.81305169	    -10.44652452	      0.08763391	      0.90682320	     -0.01189343	     21.23709592	     -0.49031807	      2.64789045	     17.63976421	      0.30787196	      4.92530150	    -12.74246205	     -7.61279994	     18.01180174	     -5.80429355	     -0.31180372	     13.10945432	      0.22880314	      1.71594981	     -5.23142310	     -7.61279994	     -8.93769744	     -0.05820943	     -4.12604290	     39.59979255	     15.67313444	     64.36253061	    130.60656830	    107.27683255	     52.23169548	     19.18232845	     63.79855195	    128.94403460	     99.21748057
      0.06666670	    -12.46224792	      5.60641725	    -10.57434717	      0.09173238	      0.90651468	     -0.00478281	     20.93886107	      0.16202003	      2.98829628	     17.97106348	      0.31365423	      5.22908463	    -12.58585838	     -7.61079078	     18.25288933	     -6.41975162	     -0.24452202	     14.27613346	      0.24916553	      1.86658367	     -6.24703592	     -7.61079078	     -8.83787363	      0.06517401	     -3.95733417	     38.91596866	     15.46414300	     66.25823652	    130.61040218	    107.21317024	     52.83305324	     19.14905762	     64.68333393	    128.32518511	     99.02552499
      0.08333330	    -12.16672157	      5.40722173	    -10.27554597	      0.08973612	      0.90661769	      0.00020538	     20.66311907	      0.63661210	      3.11895698	     18.45495719	      0.32209977	      5.41616023	    -12.74083032	     -7.60745771	     18.68134911	     -6.93293111	      0.02522307	     15.71996042	      0.27436507	      2.18211638	     -6.81179552	     -7.60745771	     -8.68522590	      0.18703579	     -3.73886470	     38.15633561	     15.07264159	     66.95483423	    130.29480141	    106.36600782	     52.69898050	     19.57835597	     65.71358099	    127.85444499	     97.74911411
      0.10000000	    -11.89638676	      5.24861368	    -10.21711169	      0.09198791	      0.90550731	      0.00604451	     20.35897153	      1.11381704	      3.33304856	     18.82172845	      0.32850113	      5.83633162	    -12.83484435	     -7.58536852	     19.15380547	     -7.39913527	      0.32745654	     17.26842520	      0.30139088	      2.48698906	     -7.39644054	     -7.58536852	     -8.59582883	      0.21929895	     -3.49344512	     38.32643807	     14.69680990	     67.36973797	    130.48045707	    102.94577500	     53.27933030	     19.74347783	     66.88172250	    127.20038890	     92.86457730
      0.11666670	    -11.70742484	      5.16358887	    -10.31543912	      0.09192606	      0.90648650	      0.01112408	     20.02828740	      1.55765300	      3.59754782	     19.00725378	      0.33173916	      6.49420010	    -12.50030060	     -7.57708279	     19.81069801	     -7.88804888	      0.22313441	     18.83201057	      0.32868059	      2.57506709	     -7.57043371	     -7.57708279	     -8.17659036	      0.26505844	     -3.48665444	     38.60972175	     14.42666811	     67.16476503	    130.13927553	    100.15184923	     53.20276468	     19.39844566	     67.17775139	    126.87543177	     90.82376250
      0.13333330	    -11.19912499	      5.05072968	    -10.22102833	      0.09201680	      0.90598944	      0.01610003	     19.23705986	      1.91967530	      3.83658985	     18.71506454	      0.32663950	      7.03682245	    -12.90816216	     -7.57363128	     20.13893999	     -8.21431707	      0.37432806	     20.35549679	      0.35527044	      2.39931115	     -8.31540900	     -7.57363128	     -8.54767835	      0.28513143	     -3.54428060	     38.54351620	     14.19616102	     67.31244987	    130.08418085	     99.53020797	     53.19819635	     19.45019137	     67.85175269	    126.56704637	     89.82078162
      0.15000000	    -10.77062785	      4.98099999	    -10.27150203	      0.09148770	      0.90708487	      0.02088526	     18.60726748	      2.25289444	      4.08455988	     18.56146726	      0.32395872	      7.46360555	    -13.03571075	     -7.56983823	     20.63218443	     -8.54068469	      0.25498871	     21.84144278	      0.38120509	      2.06773650	     -8.89778066	     -7.56983823	     -8.63757082	      0.33031805	     -3.58105240	     38.22540766	     13.98192512	     67.06802685	    130.09583566	     98.68205428	     52.77445467	     19.36779973	     67.82797269	    126.23945020	     88.61938725
      0.16666670	    -10.33996446	      5.10132400	    -10.54123395	      0.09015559	      0.90773163	      0.02533436	     18.03010332	      2.43501518	      4.45431376	     18.32235522	      0.31978543	      7.80727682	    -13.09267298	     -7.56657516	     21.00100889	     -8.70356694	      0.01999882	     23.10997742	      0.40334520	      1.40379781	     -9.63190264	     -7.56657516	     -8.74879077	      0.19811589	     -3.59565048	     38.69455447	     13.82822225	     66.69925006	    130.03409705	     98.62153939	     52.38321927	     19.26604619	     67.70351070	    125.88622926	     87.33373710
